# xmcd CD database file
#
# Track frame offsets:
#	182
#	18582
#	37722
#	53512
#	70532
#	86780
#	99887
#	114692
#	130122
#	145942
#
# Disc length: 2198 seconds
#
# Revision: 5
# Processed by: cddbd v1.5.2PL0 Copyright (c) Steve Scherf et al.
# Submitted via: CDex 1.91
#
DISCID=7708940a
DTITLE=Lobo - Greatest Hits
DYEAR=1990
DGENRE=Pop-Folk
TTITLE0=I'd Love You To Want Me
TTITLE1=How Can I Tell Her About You
TTITLE2=You're All I Ever Need
TTITLE3=A Day In The Life Of A Love
TTITLE4=Don't Expect Me To Be Your Friend
TTITLE5=Me And You And A Dog Named Boo
TTITLE6=Where Were You When I Was Falling In Love
TTITLE7=I Don't Wanna Make Love Anymore
TTITLE8=Afterglow
TTITLE9=The Way I Came In
EXTD=YEAR: 1990
EXTT0=
EXTT1=
EXTT2=
EXTT3=
EXTT4=
EXTT5=
EXTT6=
EXTT7=
EXTT8=
EXTT9=
PLAYORDER=
